<svg width="39" height="36" viewBox="0 0 39 36" fill="none" xmlns="http://www.w3.org/2000/svg">
<path d="M18.5772 31.0748L31.7843 21.9561C32.5883 21.4 33.0372 20.5018 33.0502 19.5846L33.1986 10.6175C33.2197 9.34102 32.4417 8.19245 31.2565 7.75051L22.9304 4.64593C22.0795 4.32635 21.0885 4.42425 20.2846 4.9804L7.09391 14.1233L18.6431 18.5815L18.5772 31.0748Z" fill="#F95C19"/>
<path d="M20.5266 4.74239L7.24176 13.9147C6.4331 14.4741 5.98158 15.3776 5.96846 16.3002L5.81896 25.3326C5.79783 26.6091 6.5759 27.7576 7.76111 28.1996L16.1478 31.3267C17.0037 31.6482 18.0005 31.5497 18.8092 30.9903L32.0774 21.7936L22.382 18.051C21.2251 17.6044 20.4647 16.4818 20.4713 15.2304L20.5266 4.74239Z" fill="#CA3E02"/>
</svg>
